<svg xmlns="http://www.w3.org/2000/svg" width="32" height="32" viewBox="0 0 32 32" fill="none" stroke="currentColor" stroke-width="2" stroke-linecap="round" stroke-linejoin="round"><circle cx="16" cy="16" r="4"/><path d="M16 3 L16 7" transform="rotate(0 16 16)"/><path d="M16 7 L16 11" transform="rotate(45 16 16)"/><path d="M16 11 L16 15" transform="rotate(90 16 16)"/><path d="M16 15 L16 19" transform="rotate(135 16 16)"/><path d="M16 19 L16 23" transform="rotate(180 16 16)"/><path d="M16 23 L16 27" transform="rotate(225 16 16)"/><path d="M16 27 L16 31" transform="rotate(270 16 16)"/><path d="M16 31 L16 35" transform="rotate(315 16 16)"/></svg>
